/* XPM */
static char *result[] = {
/* columns rows colors chars-per-pixel */
"32 32 23 1 ",
"  c black",
". c #2A2D3C",
"X c #383D52",
"o c #F2EE30",
"O c #063F89",
"+ c #06388E",
"@ c #064984",
"# c #06478A",
"$ c #064B88",
"% c #064A8B",
"& c #064C8A",
"* c #064C8B",
"= c #064A90",
"- c #065091",
"; c #075BA6",
": c #075AA9",
"> c #075CA8",
", c #075EAA",
"< c #075EAB",
"1 c #074EB0",
"2 c #0760AE",
"3 c #0761B0",
"4 c None",
/* pixels */
"44444444444444444444444444444444",
"44444444444444444444444444444444",
"44444444444444444444444444444444",
"44444444444444444444444444444444",
"44444444444444444444444444444444",
"44444444444444444444444444444444",
"44444333+4444444444333+444444444",
"444443333+4444444443333+44444444",
"4444333o33+4444444333o33+4444444",
"444X.o3 o3++44444X.o3 o3++444444",
"44XX..o3333+4444XX..o3333+444444",
"44X...o3333++444X...o3333++44444",
"44.4..o3333@+444.4..o333@@+44444",
"444444+3333@+4444444+333@@+44444",
"444444+333$@+4444444+33@@@+44444",
"444444+33&@@+4444444+3333@+44444",
"44444+33333@+4444444+33333@+4444",
"4444+333333+14444441+33333+11444",
"4441+:3333+114444441+:3333+11444",
"4441+=<333+114444441+=<333+11444",
"4441+#-333+114444441+#-333+11444",
"4441+@*,2:+111444441+@*,2:+11144",
"4441+@$;>%+111444441+@$;>%+11144",
"444O+@@$$@+O1144444O+@@$$@+O1144",
"444O+@@@@@+O1144444O+@@@@@+O1144",
"444O+@@@@@+OO144444O+@@@@@+OO144",
"4444++@@@@@+OO444444++@@@@@+OO44",
"44444++@@@@++O4444444++@@@@++O44",
"444444+++@+++O44444444+++@+++O44",
"444444.4+++.++444444444.+++.++44",
"44444...44...114444444...4...114",
"44444X4X44X4X114444444X4X4X4X114"
};
